<svg width="21" height="21" viewBox="0 0 21 21" fill="none" xmlns="http://www.w3.org/2000/svg">
<path d="M20.9936 10.4936C20.996 10.8013 20.9025 11.102 20.7261 11.354C20.5497 11.606 20.2991 11.7968 20.0093 11.8999L14.0618 14.0627L11.8999 20.0093C11.7933 20.2963 11.6015 20.5439 11.3501 20.7188C11.0987 20.8936 10.7999 20.9873 10.4936 20.9873C10.1874 20.9873 9.88858 20.8936 9.63719 20.7188C9.38581 20.5439 9.19395 20.2963 9.0874 20.0093L6.92459 14.0561L0.978022 11.8999C0.690957 11.7933 0.443377 11.6015 0.268544 11.3501C0.0937112 11.0987 0 10.7999 0 10.4936C0 10.1874 0.0937112 9.88858 0.268544 9.63719C0.443377 9.38581 0.690957 9.19395 0.978022 9.0874L6.93115 6.92459L9.0874 0.978022C9.19395 0.690957 9.38581 0.443377 9.63719 0.268544C9.88858 0.0937112 10.1874 0 10.4936 0C10.7999 0 11.0987 0.0937112 11.3501 0.268544C11.6015 0.443377 11.7933 0.690957 11.8999 0.978022L14.0627 6.93115L20.0093 9.0874C20.2991 9.19045 20.5497 9.38125 20.7261 9.63328C20.9025 9.8853 20.996 10.186 20.9936 10.4936Z" fill="#AD28EB"/>
</svg>
